/* XPM */
static char *cloudpr[] = {
/* columns rows colors chars-per-pixel */
"64 64 41 1 ",
"  c #9FB7D6",
". c #9FB9D7",
"X c #9FB7D8",
"o c #9FBAD9",
"O c #A4B4D4",
"+ c #A5B6D4",
"@ c #A8B4D3",
"# c #A9B4D3",
"$ c #AEB7D3",
"% c #A8B4D4",
"& c #A8B5D4",
"* c #ABB5D5",
"= c #A1B8D5",
"- c #A7B8D7",
"; c #ACB8D6",
": c #A3B7D8",
"> c #A0B8DA",
", c #A1B8DA",
"< c #A0BBDB",
"1 c #A6B9DA",
"2 c #A1BDD9",
"3 c #A8B8D8",
"4 c #B1B7D5",
"5 c #B1B8D4",
"6 c #B0B9D5",
"7 c #B5B9D5",
"8 c #B6BAD6",
"9 c #BABBD5",
"0 c #B9BAD6",
"q c #BABBD6",
"w c #B9BCD6",
"e c #BEBCD6",
"r c #B3BCD9",
"t c #BCBDD8",
"y c #C2BED6",
"u c #C1BDD8",
"i c #A6C1DE",
"p c #ACC1DE",
"a c #B2C2DE",
"s c #A7C3E0",
"d c #B3C5E0",
/* pixels */
"O@OOO  OOOOOO   =o-=oooio=oooooo2ooo==o=        OOOoXX    XXX%oo",
"O@OOO  OOOOOO   =o-=oooio=oooooo2ooo==o=        OOOoXX    XXX%oo",
"O@OOOO OOOOO    =ooo=ooooo=io2=22ooooo=o    O    OOOOXXX  XXXX%X",
"OOOOOOOO   OOO  o=oooo-oiooi2=oooooo..o=       OXOXOXXXO  Xo%X<%",
"OOOOOOOO   OO O =ooo=ooo=oooo2-o=oooo...          OXOXOX    <%>>",
"OO@OOOOO  OOOOOO==o-oooooio2oooooooooooo         O %OoOO   X%%<X",
"OO@@OOOOOOOOOO Oo-o==o-o===i22ioooooooooo   OO O  o    OOO O>%Or",
"O@O@OOOO OO  O  =--=-=oo==2o2oo2oooooooo     OO    %X OO OOX%q4r",
"OO@OOOOOOOOO    =oooo--o==o2oi22o2ooooo. OOOOO O    OO O Oo%%4@%",
"%%%%%%<%O OO    2oo2---o-o2-i222o<<<ooo  -  OOO=OO   O OOO%%qqqr",
"%%%@%%%, OOO    ----2-o-o-o2ooio2o<<oo-oOOO OOOOOO  OXO  O@@%quw",
"%%OOX%%<OOOOOO  ---;----o--i-i--1o<<o--;--OOOOOOX   XOOOOXO@@@Ow",
"%%OOX%%%OOOOOOOO-;-----o--o---o-1o11oo-OO-OOOOO OOOOOXOOOOO@@@@@",
"O@@@%%%%OO%%OOOO;-p----o------i-11--oo-O-O=O$O$OOOOO%%%XOO%%rq%@",
"@@@4%%%%@X%%OOOO;;-------ii2o-o--- --O-OOo-OO=OOOOOO%%%1OOOr04r%",
"q@4@%4%%@@%%@@@@-;---1--oii22i-o----@----O-O$O$$@@OO%%X%O%%%@@%r",
"quq4r%%%%@%%%@@@--1111----iii2------;@OO OO- OO$@@OO@OO%%%%%@r1%",
"uuqrq1@11---1-----1i-1i1oii--i-o-;=--OO-OO$OO$wyuq@@;;;;;-;--;-;",
"uuq%%111-11-1---i----1-iiiiii2i-==;---$;@88wwwwwq4%%1@1;-;--;i;;",
"uq@1111;-------i----1---i-iii1i-;=$-=;8;wwyywww;q4urr1;;----;;p@",
"4@%1-11;;;8w;i-1--i----i1--;1i-;;;--;$yayyyyywyyuuu4r;11p;;;;wya",
"i--i1;;;wyywa;;i--i------1iii--;--;;;p;www88wwywqr4qurwrwa@8ayyw",
"-i--@awwwwyw;;--i---1i-i;i----i;;;;;;;8;;;;;ww88qqyuuqauyud48ayw",
"-i--;;88ywa8;;--;---1------p--i@p;;;;p;;-;;;8wyyuuuuuuqqywwywyww",
"--p1;;;wy5$;;;;;---i--;i-p---p---;-;;--i1i1;8yyyuuuuuquq8yywyaww",
"8wy8;8wyyw8$;;;;;;;-1;1p;p1;i;p;-;;;;--i--i;awayyayaywywww8wyywy",
"pywwaaaw8a;$88p8awa8q1;;;1i1-;;i;;;;p----;;-;;;;$;;8888a@8wwwayw",
"888paaaaaaaa$8w5wwwar11%;;;;-p-;p;-pi$p;pip-;p-p;;--;-;;8awyyywa",
"ppapaaaaaaaaaaap@wayr1%@--;p;;pp--;-$i;i;iiipii--ip-i-;$@w48wwyu",
"iiippippapp;;-5$wawqwrrw;p@;p8;;;;;i-;iiiiiip;i;----;;88w88@48pp",
"@ip1;i-@-;-;;ayawyyyuuuw;;p;;;;pp;;;iii--i-;8a;--;--$;aw;;aa41pp",
"11a8;;88$;88wayyyyyyuyyq8p;;a;p;----i;--i--8ayw8;8p;;aa;aaa8a@pa",
"8@wwa8;w88;;5;5;ww88wu8@;;;p;;;;-;$=$-p$-;8yyyyyaywa8a8pp;pppppp",
"wyyw8;8wa;--111-11-888;8;;;-;;p;p;;;;;;p;awyyywwwyywwyw8;p@p8;p-",
"ywwy8;888;-1i;p-i;i;;p;p;;p;pi;;;;;;;;=$;8ywwyyywww8wa8wa8pap;p;",
"ayww88;;8;-a-p;ap;p;;;;;p;-p1p;p;;;;;;$;88;8888-aqrrpppaaaaaaaaa",
"y58a88888ar8p8@8a;;a;pp;p;p;;;p88$$=;;;pp;;;@;;;;-1;piaapaaaaiaa",
"88$85wyw;;;88wwwa8;-888;8;888;;;$O$=--;=;88;O-OOO1O O-O-iiiiiiii",
";;@O55yw8888w58www8awa888a88wa;;$O=$=$-$O8$OO -oo- oooooo-ioi1ii",
"-OOOO-;--;;O$OOO@8ww8;8;8;;;;;8;=--=O==$--O- OO-oooooooo-ooo-ooo",
"oo--ooooOOO;OOOOO@@O;;;;--p---;---$=O$==O--OOoo- o ooooooooo222-",
"ooo=o=oo     OOo--OOOOOO=O=OOOO-=OO=$ O$ OOO==O-=ooo-o2oooooooo-",
"oo=oooooooOoOoOo-o O11Oo=== o----$$==O== ====oOO$o-o2oooo--o-2i-",
"ooo=o=o=oOOo O OO1oooO-oo-o--oO1p-O=O=O=$=Oi---=oooooooooo--2--o",
"oooo=o=oooOO-o-ooO OOoOoo-oO-----;p$$pppppppppip-O-----o---i1---",
"i--oooooOO$--o-oo---O1O1--@------i-pp$p$p$p$ppppp-p--1o--o---;;-",
"2ioioo-oo-;--o---;;;-OOO---;----;=p$p$p$p$p$p$-i-;p;1-o------;;-",
"oioo-oo-O$O;--@@O-----11-o----i-----==$OO=i==ii-o---1oo2-io=-;8a",
"ooiooo-OO$O-o-o-O--oo-o1-oi------ii-i=iiii=i=$-oiioiioi-2oiio;55",
"-oo--oo=-ooo22222ooo2oi--i---1--2ii-i--ii-i-i--io222222-22io2oi1",
"-o-2oo-o-o=i-22oooi-i1------1-;i-2-i-i---i-i-io1-ooi-iio222ii1i2",
"o-o-o-oooioo2---i-1111-;;-i--p-1-2i-22ii2ii-oi-i---ii-i-i---p--1",
"=$=oo-o-ooooooo---------;---1p;;-i--i222iooi--;;pi---;-i-p;p;--;",
"$O-O--oooo-o-=$Oo1o-O1OO-o OOO;8p8-;-i-2-i--paya;ap8;;;-;88paway",
"w988O-o-ooooooo-oooooo  o- --O-1;-i-------p;-;;;;;;--i---i-;awww",
"yyyy8--ooooooooo1iooooO-oOoo-O11----oii-i--p1111;;-;--ipp;;;-;w;",
"yyww8;-ooo222oooooooooo Oo-ooo1o22o1o2ooi2ois1soi;;p;--;p;i1i-i;",
"w8$;8; O-ooooooooooooooooo1oo2oo22o1o2io222i2isoio1i1i1i-1i222i2",
"5OOOO@O$-oo$ooooo oo-oo oo2oo21o2oo1oi2ooiio2ooio222o211i1o-1212",
"8$O$@88w$5$=oo=ooooooooooooooooo1o1oo1122o12o2o2oi-22112oo1ii12o",
"ww88;8ywa995O-OOooo-ooooo-1oo11o111o1o1o1111o11111oio21o-2o-1111",
"w88$8;yyw8;8$$OOOOOOO oooo-2o-11o--1o1o---1o-11o11o1o11o1o11o--1",
"yw88;8ww8O$@8O@$OOOOO  -ooo--1111--o111-----o---1o--1--11-1111o1",
"yww888@$$OO---O@OOOO  oo-o-oo-111----1---i1------i1----1-o1111oO"
};
